<?xml version="1.0" standalone="no"?>
<!DOCTYPE svg PUBLIC "-//W3C//DTD SVG 20010904//EN"
 "http://www.w3.org/TR/2001/REC-SVG-20010904/DTD/svg10.dtd">
<svg version="1.0" xmlns="http://www.w3.org/2000/svg"
 width="1920.000000pt" height="1920.000000pt" viewBox="0 0 1920.000000 1920.000000"
 preserveAspectRatio="xMidYMid meet">

<g transform="translate(0.000000,1920.000000) scale(0.100000,-0.100000)"
fill="#000000" stroke="none">
<path d="M4310 14823 c0 -5 -7 -71 -15 -148 -14 -138 -10 -174 16 -148 13 13
42 279 33 294 -6 11 -34 12 -34 2z"/>
<path d="M3621 14711 c-12 -8 -5 -31 41 -133 31 -68 59 -131 62 -141 5 -14 10
-16 26 -7 19 10 19 11 0 53 -10 23 -38 86 -61 140 -22 53 -44 97 -48 97 -3 0
-13 -4 -20 -9z"/>
<path d="M4895 14465 c-44 -63 -80 -121 -80 -127 0 -7 7 -14 16 -16 10 -2 42
35 94 110 80 115 91 140 65 145 -10 2 -44 -38 -95 -112z"/>
<path d="M3984 14371 c-87 -24 -220 -83 -294 -130 -185 -121 -355 -367 -411
-596 -30 -125 -31 -287 0 -410 25 -104 96 -244 221 -440 100 -155 126 -224
135 -354 7 -100 19 -141 42 -141 9 0 12 -7 8 -19 -5 -16 4 -21 62 -34 128 -31
328 -75 373 -82 25 -4 112 -22 194 -41 168 -38 166 -39 166 38 0 39 4 50 24
63 26 17 31 28 66 145 40 134 71 181 214 329 254 263 343 444 353 716 6 170
-16 288 -82 423 -134 277 -322 437 -619 523 -106 31 -353 37 -452 10z m376
-37 c347 -66 625 -325 716 -669 27 -103 25 -331 -4 -437 -46 -168 -136 -309
-324 -504 -151 -157 -192 -223 -224 -358 -10 -42 -26 -84 -36 -93 -14 -13 -44
-17 -126 -20 -59 -2 -112 0 -119 4 -27 19 92 719 137 803 8 14 21 20 46 20 43
0 105 31 133 66 28 35 28 97 1 124 -12 12 -33 20 -55 20 -47 0 -105 -58 -131
-130 -10 -29 -25 -55 -33 -58 -19 -7 -179 12 -268 33 -69 16 -72 18 -84 53
-22 68 -50 113 -82 132 -64 39 -127 17 -127 -45 0 -41 58 -96 135 -131 l53
-23 4 -63 c3 -66 -11 -771 -16 -776 -6 -5 -251 50 -261 59 -5 6 -15 60 -21
122 -17 159 -28 186 -181 427 -150 235 -195 361 -196 545 -1 184 53 348 176
530 120 179 334 325 542 370 83 18 247 18 345 -1z m-462 -1062 c38 -37 60 -77
49 -88 -16 -17 -127 67 -127 96 0 43 30 39 78 -8z m626 -28 c26 -10 19 -53
-15 -85 -29 -27 -97 -54 -108 -44 -7 8 24 67 54 103 27 32 40 37 69 26z m-458
-149 c46 -13 126 -22 231 -24 41 -1 42 -2 33 -25 -36 -95 -130 -631 -130 -741
l0 -48 -91 8 c-108 8 -121 12 -115 34 6 22 16 380 18 619 1 105 2 192 3 192 1
0 24 -7 51 -15z"/>
<path d="M3077 14255 c-17 -12 -16 -15 15 -38 131 -98 220 -157 228 -152 19
12 10 30 -27 55 -20 14 -44 32 -52 41 -9 9 -45 36 -81 61 -57 41 -67 45 -83
33z"/>
<path d="M5315 13988 c-71 -33 -134 -63 -139 -68 -5 -6 -4 -15 3 -24 10 -12
31 -5 139 45 70 32 131 60 137 62 6 2 6 11 0 24 -10 19 -15 18 -140 -39z"/>
<path d="M6236 13969 c-208 -34 -430 -180 -550 -360 -34 -52 -106 -217 -106
-245 0 -7 -4 -15 -10 -19 -9 -5 -196 9 -268 21 -31 5 -33 3 -30 -18 3 -22 9
-24 123 -34 66 -6 129 -10 140 -8 20 3 20 -1 17 -1092 l-3 -1096 -30 -25 c-38
-32 -102 -165 -129 -268 -63 -239 -123 -375 -164 -375 -8 0 -19 -6 -25 -14 -9
-11 -8 -18 4 -30 51 -50 187 35 292 182 25 34 47 62 49 62 2 0 4 -195 4 -434
l0 -435 -57 -6 c-325 -38 -531 -184 -609 -430 -61 -192 -66 -352 -30 -915 14
-206 27 -532 30 -725 4 -192 9 -429 12 -525 4 -96 7 -182 6 -190 0 -30 37
-186 56 -237 l20 -53 -164 0 c-90 0 -164 -3 -164 -8 0 -4 16 -31 35 -59 19
-29 35 -55 35 -58 0 -3 27 -45 60 -93 87 -127 252 -365 271 -390 l16 -22 514
-2 514 -3 3 -584 c2 -571 4 -611 33 -611 4 0 8 269 8 597 0 328 4 600 8 604 5
3 46 19 93 34 47 15 171 59 275 97 240 88 413 148 426 148 6 0 29 8 52 19 23
10 112 42 197 72 l156 53 217 -199 217 -200 0 -1066 c0 -964 2 -1067 16 -1073
23 -9 25 -8 23 17 -1 12 -1 149 -1 305 l2 282 151 0 151 0 49 -43 c63 -55 182
-126 296 -176 133 -59 119 -67 172 92 45 134 47 138 71 132 14 -3 57 -10 96
-17 l70 -11 -3 -51 c-1 -28 -4 -95 -6 -150 l-4 -99 110 7 c61 4 135 12 166 17
121 21 361 114 361 139 0 5 -29 65 -65 133 l-65 123 33 16 c17 9 52 32 77 52
l45 36 101 -107 100 -107 78 81 c101 105 138 157 191 268 47 101 88 205 82
212 -6 6 -227 73 -241 73 -29 0 -32 21 -16 112 l16 92 148 -3 149 -2 -6 113
c-9 168 -57 355 -119 466 -28 50 -49 64 -63 41 -4 -6 -55 -34 -115 -63 l-107
-53 -16 27 c-9 15 -34 51 -56 80 l-39 52 104 95 c57 53 104 99 104 103 0 19
-150 146 -247 209 -115 76 -286 152 -303 135 -6 -6 -26 -66 -46 -135 -20 -68
-37 -126 -39 -128 -3 -3 -105 12 -172 25 -22 4 -23 5 -16 146 l6 141 -134 -6
c-170 -7 -204 -12 -280 -37 -34 -11 -69 -20 -78 -19 -13 0 -219 241 -244 285
-7 12 102 14 796 14 l804 0 7 -137 c9 -205 51 -421 108 -568 45 -116 96 -215
111 -215 6 0 48 21 92 46 95 55 270 144 282 144 5 0 17 -17 28 -37 11 -21 49
-76 83 -123 l64 -84 -54 -51 c-29 -27 -100 -94 -158 -147 l-105 -97 90 -91
c181 -183 437 -334 706 -417 13 -4 21 8 35 49 9 29 18 62 20 73 2 20 84 277
90 283 1 2 45 -5 96 -17 51 -11 119 -23 151 -27 l59 -6 -8 -207 c-3 -113 -8
-209 -10 -213 -16 -27 266 -13 438 22 57 12 148 37 203 56 55 19 109 37 119
39 31 7 166 73 166 81 0 5 -43 93 -96 197 -52 104 -94 190 -92 191 2 2 30 20
63 41 33 21 88 59 121 86 l62 49 148 -161 148 -160 104 108 c118 123 218 269
297 428 61 124 111 264 98 275 -9 9 -231 78 -335 105 -38 9 -68 22 -68 29 0 6
9 54 20 106 11 52 22 117 26 144 l6 48 214 -7 214 -7 0 86 0 86 860 0 c567 0
860 -3 860 -10 0 -14 317 -13 417 1 265 37 509 206 623 434 22 44 52 121 67
170 l28 90 3 2785 c2 2022 0 2812 -8 2885 -23 199 -88 341 -224 484 -74 77
-151 130 -263 183 -113 53 -190 67 -427 78 -249 12 -9040 11 -9110 -1z m9084
-52 c121 -34 262 -112 345 -189 41 -38 75 -75 75 -80 0 -6 14 -26 30 -45 57
-64 116 -207 140 -338 8 -43 10 -863 8 -2880 -3 -2695 -4 -2823 -22 -2880 -56
-185 -174 -347 -333 -458 -72 -50 -139 -82 -225 -109 l-73 -23 -3519 -3
c-2816 -2 -3522 0 -3534 10 -8 7 -94 112 -191 233 -210 264 -307 367 -409 434
l-76 51 100 0 c105 0 137 10 147 49 2 11 -2 32 -9 47 -8 15 -11 31 -6 36 4 4
1686 9 3737 11 2858 2 3741 6 3779 15 99 24 154 58 250 155 97 96 131 148 163
252 17 58 18 161 18 2550 l0 2490 -27 81 c-68 198 -227 346 -428 395 -46 12
-790 14 -4520 14 l-4465 0 -77 -27 c-185 -66 -336 -225 -382 -405 -14 -54 -16
-188 -16 -1136 l0 -1075 -52 20 c-28 10 -76 20 -105 21 l-53 2 0 1031 c0 873
2 1045 15 1118 47 271 215 480 478 594 151 65 -213 60 4692 59 4307 -2 4483
-3 4545 -20z m-8857 -485 c15 -16 30 -44 33 -64 6 -31 2 -41 -29 -74 -31 -35
-41 -39 -82 -39 -39 0 -51 5 -71 28 -34 39 -40 73 -20 113 35 74 113 91 169
36z m665 -7 c42 -45 44 -92 5 -135 -54 -59 -143 -43 -179 33 -14 30 -14 37 -1
70 20 46 71 80 112 72 17 -3 45 -21 63 -40z m613 22 c43 -29 62 -80 45 -122
-14 -33 -68 -75 -98 -75 -55 0 -118 59 -118 110 0 51 61 109 116 110 12 0 36
-10 55 -23z m7939 -2774 c0 -2018 -2 -2348 -15 -2408 -43 -206 -200 -374 -401
-431 -55 -16 -335 -17 -3766 -18 -2526 -1 -3708 2 -3708 9 0 5 5 28 10 50 6
22 12 59 15 83 5 38 60 304 114 542 11 47 31 144 46 215 15 72 31 134 35 138
4 4 25 -2 46 -15 l39 -23 2760 -3 c1518 -2 2788 0 2822 3 81 8 143 49 184 119
l29 51 -2 186 -3 186 -30 48 c-21 35 -45 56 -80 74 l-49 26 -2801 0 c-1540 0
-2817 -3 -2838 -7 -51 -8 -106 -54 -137 -114 -24 -46 -25 -57 -25 -209 0 -88
3 -172 8 -187 l7 -28 -570 0 c-313 0 -570 1 -571 3 0 1 -11 97 -24 212 -16
145 -30 228 -45 268 -23 62 -111 178 -163 215 -43 31 -119 70 -148 76 -13 2
-44 9 -69 15 -51 12 -202 39 -240 43 -19 2 -11 8 35 25 73 27 132 76 193 158
24 33 42 51 39 40 -11 -40 -18 -85 -14 -85 2 0 43 37 90 83 56 53 93 98 106
127 102 235 67 523 -82 672 -98 98 -200 130 -397 124 -74 -3 -146 -7 -160 -11
-23 -6 -25 -3 -27 30 -1 21 -13 55 -27 76 l-26 39 0 970 0 970 4920 0 4920 0
0 -2337z m-9918 196 c23 -10 23 -10 -24 -59 -58 -61 -92 -125 -123 -238 l-24
-87 0 125 -1 125 45 60 c39 53 75 84 97 85 4 0 17 -5 30 -11z m702 -529 c-7
-85 -18 -116 -76 -215 -129 -217 -242 -300 -373 -274 -63 14 -178 70 -228 112
-32 28 -39 41 -47 92 -23 143 -8 232 50 297 l36 41 -4 -66 c-5 -73 3 -121 18
-112 6 3 10 23 10 43 0 78 52 125 148 136 54 6 263 55 305 71 9 4 17 4 17 1 0
-13 -125 -66 -155 -66 -27 -1 -28 -2 -11 -12 52 -30 206 21 268 90 l33 37 8
-50 c4 -27 4 -84 1 -125z m-865 -420 l-5 -135 -1 165 c-1 91 2 152 6 135 3
-16 3 -91 0 -165z m51 -5 c0 -9 12 -34 26 -56 31 -49 64 -125 64 -146 0 -19
-43 -11 -80 16 -24 17 -25 24 -25 110 0 50 3 91 8 91 4 0 7 -7 7 -15z m272
-179 l53 -24 -30 -12 c-16 -6 -59 -13 -95 -13 l-65 -2 -5 72 -5 71 47 -34 c25
-19 70 -45 100 -58z m7759 -266 c61 -11 89 -29 133 -84 l31 -38 0 -188 0 -188
-31 -39 c-16 -21 -48 -47 -70 -58 -39 -20 -61 -20 -2076 -23 l-2038 -2 0 315
0 315 1998 0 c1310 0 2017 -3 2053 -10z m-5736 -570 c22 -24 19 -47 -29 -267
-95 -430 -108 -492 -116 -553 -16 -113 -51 -254 -67 -272 -15 -17 -65 -18
-823 -18 -921 0 -843 -8 -821 88 7 31 17 86 23 122 13 80 82 407 163 774 13
59 32 117 41 127 16 18 46 19 814 19 781 0 797 0 815 -20z m-1861 -1166 c9 -8
16 -19 16 -23 0 -29 -30 -31 -481 -31 -252 0 -464 3 -473 6 -19 7 -21 35 -4
52 9 9 127 12 469 12 403 0 459 -2 473 -16z m1648 -2 c9 -9 10 -17 2 -30 -16
-25 -275 -30 -360 -6 -95 26 -270 29 -409 8 -95 -15 -194 -19 -477 -21 l-358
-3 0 35 0 35 795 -2 c628 -2 797 -6 807 -16z m-332 -91 c202 -68 304 -157 586
-511 227 -284 407 -503 456 -555 20 -22 57 -65 80 -96 40 -53 304 -384 335
-420 13 -15 -1 -27 -129 -118 -79 -56 -152 -110 -163 -120 -11 -10 -68 -53
-128 -95 l-108 -78 -101 94 c-55 51 -344 316 -640 589 l-539 496 -125 -64
c-248 -125 -589 -225 -970 -283 -422 -64 -688 -36 -824 86 -80 71 -123 156
-175 340 -5 19 0 22 60 27 36 4 83 12 105 18 49 15 144 98 170 149 26 50 44
161 37 226 -5 52 -5 53 26 63 45 14 235 46 493 81 368 51 600 89 814 135 191
41 284 59 370 69 19 2 90 3 157 1 103 -3 135 -8 213 -34z m-2114 -308 c10 -52
-10 -167 -38 -222 -27 -52 -91 -105 -146 -121 -20 -6 -64 -13 -98 -17 l-61 -6
-7 51 c-8 63 -9 259 -1 271 3 5 31 15 63 21 31 7 102 22 157 35 55 13 105 24
112 24 7 1 15 -16 19 -36z m4972 -470 c-32 -2 -84 -2 -115 0 -32 2 -6 3 57 3
63 0 89 -1 58 -3z m1923 -30 c5 -125 -15 -217 -69 -315 -42 -78 -88 -125 -182
-186 -216 -141 -502 -104 -687 88 -79 81 -142 247 -143 372 0 86 -53 78 546
78 l534 0 1 -37z m-5081 -129 c0 -2 -46 -4 -102 -4 l-103 0 75 38 75 37 28
-34 c15 -18 27 -35 27 -37z m770 -694 c0 -8 -50 -120 -53 -120 -2 0 0 112 2
148 1 9 7 8 26 -4 14 -9 25 -20 25 -24z m1088 -148 l24 -19 -72 -115 -72 -115
-161 -42 c-156 -39 -187 -41 -175 -9 3 7 45 40 94 73 48 33 111 78 138 100 69
55 190 144 196 144 3 0 16 -8 28 -17z m-1021 -133 c54 -16 103 -32 109 -34 9
-3 8 -20 -2 -67 -7 -35 -13 -78 -14 -96 l0 -33 -102 3 -103 3 -3 128 c-2 81 1
127 8 127 5 0 54 -14 107 -31z m1337 -204 c21 -77 20 -100 -4 -177 -25 -83
-71 -151 -128 -190 -141 -97 -309 -92 -443 14 l-51 40 39 19 c21 10 61 37 90
58 28 22 61 44 72 51 16 8 21 20 21 52 l0 40 53 -6 52 -6 135 89 c74 50 138
87 142 83 4 -4 14 -34 22 -67z m-1070 -621 l44 -61 -56 -56 -57 -56 -102 28
c-56 15 -110 34 -118 41 -9 8 -28 37 -41 64 -17 35 -19 44 -7 29 l18 -22 125
64 c114 58 126 62 138 47 7 -9 32 -45 56 -78z"/>
<path d="M10780 12549 c-378 -63 -680 -329 -794 -699 -73 -238 -45 -518 74
-730 145 -258 350 -424 606 -489 473 -123 929 82 1147 514 77 153 91 219 92
430 0 143 -10 221 -40 311 -115 344 -410 596 -772 659 -93 16 -227 18 -313 4z
m265 -455 c67 -32 95 -57 143 -132 68 -105 76 -197 30 -321 -26 -67 -101 -146
-173 -180 -73 -35 -191 -40 -267 -12 -67 26 -160 118 -199 197 -35 73 -34 188
4 265 40 82 98 143 170 179 56 28 70 31 152 30 73 -1 100 -6 140 -26z m14
-784 c141 -34 292 -127 384 -237 48 -57 117 -170 117 -191 0 -26 -252 -185
-310 -196 -14 -2 -25 -5 -25 -6 0 -1 -7 -3 -15 -5 -8 -1 -51 -10 -95 -20 -130
-27 -282 -23 -420 12 -33 8 -71 17 -84 19 -56 11 -220 112 -311 192 l-45 40
24 45 c37 72 124 171 193 220 190 134 382 176 587 127z"/>
<path d="M8049 10402 c-101 -53 -129 -124 -129 -332 0 -180 34 -259 134 -313
l41 -22 2794 -3 c1846 -1 2806 1 2831 8 61 16 119 65 146 123 22 48 24 63 24
220 0 186 -7 217 -63 276 -18 18 -50 42 -72 52 -39 18 -134 19 -2846 19
l-2807 0 -53 -28z m5694 -29 c34 -17 44 -28 82 -85 24 -36 25 -44 25 -207 l0
-169 -32 -48 c-18 -27 -49 -57 -68 -69 -35 -20 -42 -20 -2077 -23 l-2043 -2 0
310 0 310 2040 0 c1879 0 2044 -1 2073 -17z"/>
<path d="M10203 9270 c5 -21 -16 -29 -28 -10 -9 15 -19 12 -33 -11 -11 -18
-11 -23 5 -34 17 -13 17 -14 0 -27 -16 -12 -16 -15 -2 -36 13 -17 20 -20 35
-12 15 8 19 6 22 -13 2 -14 11 -23 26 -25 18 -3 22 1 22 23 0 20 4 26 15 21 8
-3 21 -8 28 -11 6 -3 18 5 26 17 12 19 11 23 -10 38 l-22 18 21 6 c25 8 26 14
9 38 -9 11 -18 14 -28 7 -23 -15 -39 -10 -39 11 0 15 -7 20 -26 20 -21 0 -25
-4 -21 -20z"/>
<path d="M10420 9270 c0 -22 -12 -25 -40 -10 -15 8 -21 6 -31 -11 -11 -22 0
-38 26 -39 6 0 -1 -9 -14 -19 -20 -15 -22 -21 -12 -39 14 -26 20 -27 49 -6 21
15 22 14 22 -15 0 -24 4 -31 20 -31 15 0 20 7 20 25 0 27 9 32 28 13 8 -8 15
-8 27 2 19 16 19 34 -1 51 -14 12 -14 14 1 25 21 15 11 59 -11 50 -8 -3 -21
-9 -29 -12 -11 -4 -15 0 -15 15 0 14 -6 21 -20 21 -13 0 -20 -7 -20 -20z"/>
<path d="M10620 9270 c0 -23 -4 -24 -30 -10 -15 8 -21 6 -30 -11 -9 -17 -8
-23 5 -33 15 -11 15 -13 1 -25 -20 -17 -20 -35 -1 -51 12 -10 19 -10 27 -2 19
19 28 14 28 -14 0 -22 4 -25 28 -22 22 2 26 7 24 26 -3 21 -1 22 17 13 27 -15
29 -14 42 11 10 18 8 24 -7 35 -17 13 -17 13 0 26 15 11 17 17 7 35 -10 18
-16 20 -31 12 -27 -15 -32 -13 -25 10 5 17 2 20 -24 20 -24 0 -31 -4 -31 -20z"/>
<path d="M10830 9270 c0 -21 -16 -26 -40 -10 -11 7 -18 3 -27 -13 -10 -19 -8
-24 9 -33 l21 -11 -21 -12 c-26 -14 -26 -19 -7 -45 13 -18 16 -18 40 -2 25 16
25 16 25 -14 0 -25 4 -30 25 -30 20 0 25 5 25 25 0 25 14 33 25 15 9 -15 19
-12 34 12 12 19 11 23 -5 35 -17 13 -17 13 0 26 16 12 17 16 5 35 -15 24 -25
27 -34 12 -10 -17 -25 -11 -25 10 0 15 -7 20 -25 20 -18 0 -25 -5 -25 -20z"/>
<path d="M11030 9270 c0 -18 -3 -19 -22 -9 -18 10 -24 8 -35 -7 -18 -25 -16
-32 9 -40 l21 -6 -23 -18 c-19 -14 -21 -20 -11 -38 13 -24 26 -28 36 -12 11
18 25 10 25 -15 0 -21 5 -25 30 -25 25 0 30 4 30 25 0 23 2 25 22 14 18 -10
24 -8 35 7 12 17 11 21 -9 37 -20 17 -21 20 -5 28 19 11 21 27 8 48 -7 10 -13
11 -30 2 -18 -10 -21 -9 -21 9 0 16 -6 20 -30 20 -24 0 -30 -4 -30 -20z"/>
<path d="M11240 9270 c0 -22 -10 -26 -28 -8 -8 8 -15 8 -27 -2 -20 -17 -19
-37 3 -49 16 -9 16 -11 -2 -24 -22 -16 -14 -62 10 -53 8 3 21 9 29 12 11 5 15
-1 15 -20 0 -21 5 -26 25 -26 20 0 25 5 25 26 0 19 4 25 15 20 8 -3 21 -9 29
-12 24 -9 32 37 10 53 -18 13 -18 15 -1 24 22 13 22 33 0 50 -13 11 -17 11
-20 2 -7 -21 -33 -15 -33 7 0 15 -7 20 -25 20 -18 0 -25 -5 -25 -20z"/>
<path d="M11440 9270 c0 -18 -3 -19 -21 -9 -17 9 -23 8 -30 -2 -13 -21 -11
-37 9 -49 16 -10 16 -10 0 -20 -20 -12 -22 -28 -9 -49 7 -10 13 -11 30 -2 19
11 21 9 21 -14 0 -21 5 -25 30 -25 25 0 30 4 30 25 0 22 3 24 19 15 27 -14 29
-13 42 12 10 18 8 24 -12 39 -13 10 -19 19 -14 19 26 1 37 17 26 39 -10 17
-16 19 -31 11 -26 -14 -30 -13 -30 10 0 16 -7 20 -30 20 -24 0 -30 -4 -30 -20z"/>
<path d="M11650 9270 c0 -21 -15 -27 -25 -10 -9 15 -19 12 -34 -12 -12 -19
-11 -23 5 -35 18 -13 18 -15 1 -24 -14 -8 -15 -14 -6 -32 16 -30 15 -30 38
-17 19 9 21 8 21 -15 0 -20 5 -25 25 -25 20 0 25 5 25 26 0 19 4 25 15 20 8
-3 21 -8 28 -11 6 -3 18 5 26 17 12 20 11 24 -8 37 l-23 14 21 12 c20 10 20
12 5 34 -12 16 -19 20 -27 12 -18 -18 -37 -13 -37 9 0 15 -7 20 -25 20 -18 0
-25 -5 -25 -20z"/>
<path d="M11857 9269 c-5 -17 -9 -19 -25 -10 -35 19 -59 -28 -24 -48 16 -9 16
-11 -2 -24 -15 -11 -17 -17 -7 -35 13 -25 15 -26 42 -12 16 9 19 7 19 -15 0
-20 5 -25 25 -25 20 0 25 5 25 25 0 25 14 33 25 15 10 -16 23 -12 36 11 9 17
8 25 -5 37 -14 14 -14 17 2 28 14 10 15 16 5 31 -11 19 -16 19 -45 8 -14 -5
-18 -2 -18 14 0 29 -45 30 -53 0z"/>
<path d="M12070 9269 c0 -16 -4 -19 -17 -14 -30 11 -34 11 -46 -7 -9 -14 -8
-20 7 -31 16 -12 16 -14 2 -26 -20 -17 -20 -35 -1 -51 12 -10 19 -10 27 -2 19
19 28 14 28 -14 0 -21 4 -25 23 -22 14 2 23 11 25 25 3 20 6 21 24 12 16 -8
22 -7 34 8 18 24 17 30 -3 42 -17 9 -17 11 1 24 15 11 17 17 7 35 -10 18 -16
20 -31 12 -26 -14 -30 -13 -30 10 0 15 -7 20 -25 20 -19 0 -25 -5 -25 -21z"/>
<path d="M12280 9270 c0 -21 -16 -26 -40 -10 -11 7 -18 3 -27 -13 -10 -19 -8
-24 9 -33 l21 -11 -21 -12 c-26 -14 -26 -19 -7 -45 13 -18 16 -18 40 -2 25 16
25 16 25 -14 0 -25 4 -30 25 -30 20 0 25 5 25 26 0 22 2 25 15 14 12 -10 18
-10 30 0 18 15 20 47 3 53 -10 4 -10 7 0 18 14 15 15 29 3 48 -7 10 -13 11
-30 2 -18 -10 -21 -9 -21 9 0 15 -7 20 -25 20 -18 0 -25 -5 -25 -20z"/>
<path d="M12480 9270 c0 -23 -10 -26 -29 -7 -10 10 -15 8 -27 -7 -19 -26 -18
-33 6 -41 20 -6 20 -7 -1 -24 -18 -15 -20 -21 -10 -39 13 -24 26 -28 36 -12
11 18 25 10 25 -15 0 -21 5 -25 30 -25 25 0 30 4 30 25 0 23 2 24 20 15 11 -6
25 -8 30 -5 16 10 11 43 -7 55 -17 10 -17 10 0 20 19 12 21 28 8 49 -7 10 -13
11 -30 2 -18 -10 -21 -9 -21 9 0 16 -6 20 -30 20 -23 0 -30 -4 -30 -20z"/>
<path d="M12690 9270 c0 -23 -10 -26 -29 -7 -10 10 -16 7 -32 -12 -19 -23 -19
-25 -2 -34 27 -15 28 -16 9 -30 -22 -16 -13 -62 10 -53 8 3 21 9 29 12 11 5
15 -1 15 -20 0 -21 5 -26 25 -26 20 0 25 5 25 26 0 19 4 25 15 20 8 -3 21 -9
29 -12 23 -9 32 37 10 53 -17 13 -17 13 0 26 15 11 17 17 7 35 -13 24 -26 28
-36 12 -10 -17 -25 -11 -25 10 0 15 -7 20 -25 20 -18 0 -25 -5 -25 -20z"/>
<path d="M12890 9270 c0 -18 -3 -19 -21 -9 -17 9 -23 8 -30 -2 -13 -21 -11
-37 9 -48 16 -9 16 -11 -2 -24 -13 -9 -16 -20 -12 -35 8 -23 21 -28 31 -12 11
18 25 10 25 -15 0 -21 5 -25 30 -25 25 0 30 4 30 25 0 22 3 24 19 15 27 -14
29 -13 42 12 10 18 8 24 -11 38 l-23 18 21 6 c25 8 26 14 9 38 -9 11 -18 14
-28 7 -22 -14 -29 -11 -29 11 0 16 -7 20 -30 20 -24 0 -30 -4 -30 -20z"/>
<path d="M13100 9270 c0 -21 -15 -27 -25 -10 -10 16 -23 12 -36 -12 -10 -18
-8 -24 7 -35 18 -13 18 -15 1 -24 -14 -8 -15 -14 -6 -32 16 -30 15 -30 38 -17
19 9 21 8 21 -15 0 -20 5 -25 25 -25 20 0 25 5 25 26 0 19 4 25 15 20 8 -3 21
-8 28 -11 8 -4 18 5 25 19 10 22 9 27 -10 37 l-21 12 21 11 c21 11 21 13 6 35
-12 16 -19 20 -27 12 -18 -18 -37 -13 -37 9 0 15 -7 20 -25 20 -18 0 -25 -5
-25 -20z"/>
<path d="M6976 8445 c-75 -39 -82 -132 -14 -179 45 -32 126 -14 147 31 27 58
6 119 -49 148 -36 19 -48 19 -84 0z"/>
<path d="M2822 13583 c3 -15 18 -19 83 -24 44 -3 113 -10 153 -14 62 -6 72 -5
72 9 0 9 -3 16 -7 16 -5 0 -71 7 -148 15 -77 8 -144 15 -148 15 -5 0 -7 -8 -5
-17z"/>
<path d="M3680 12196 c0 -14 3 -27 8 -27 4 -1 21 -3 37 -5 17 -2 186 -40 378
-84 191 -44 352 -80 357 -80 6 0 10 11 10 23 0 22 -7 25 -97 42 -127 23 -622
134 -675 151 -14 4 -18 0 -18 -20z"/>
<path d="M3672 12109 c3 -20 26 -27 343 -101 187 -43 353 -79 368 -80 15 -1
30 -5 33 -10 3 -4 14 -8 25 -8 13 0 19 7 19 23 0 22 -9 26 -162 60 -90 20
-203 46 -253 58 -49 11 -106 22 -125 24 -31 3 -182 36 -233 51 -15 5 -18 1
-15 -17z"/>
<path d="M3662 12023 c3 -25 10 -28 143 -59 77 -19 145 -31 152 -29 7 2 14 1
17 -3 3 -4 21 -9 42 -10 20 -2 41 -5 45 -8 4 -2 29 -9 56 -14 26 -5 106 -23
178 -40 111 -26 131 -28 143 -16 20 19 7 36 -28 36 -25 0 -470 99 -698 155
l-53 13 3 -25z"/>
<path d="M3665 11923 c15 -62 138 -213 173 -213 5 0 15 -14 22 -31 7 -17 24
-35 36 -39 13 -5 81 -12 152 -16 128 -6 129 -6 148 19 11 13 35 29 55 36 19 6
58 35 87 64 l53 53 -78 17 c-43 9 -98 19 -123 22 -25 3 -81 15 -125 25 -130
32 -388 90 -398 90 -5 0 -6 -12 -2 -27z"/>
<path d="M10688 5144 c-5 -4 -8 -53 -8 -108 l0 -101 -68 0 -67 0 -24 95 c-13
52 -25 97 -27 99 -2 2 -33 -7 -71 -19 -96 -31 -227 -101 -301 -161 l-63 -50
71 -76 c38 -41 70 -80 70 -87 0 -6 -18 -31 -38 -55 l-38 -44 -42 27 c-23 14
-44 26 -47 26 -3 0 -23 11 -46 25 -22 14 -44 23 -50 20 -5 -4 -21 -29 -34 -55
-52 -103 -89 -227 -100 -341 l-7 -66 32 -7 c18 -3 67 -6 110 -6 l78 0 4 -62
c3 -35 1 -66 -4 -69 -6 -4 -52 -16 -104 -29 -93 -22 -94 -22 -88 -49 24 -99
118 -279 185 -354 l46 -52 67 60 c97 86 87 84 144 40 l50 -38 -55 -90 -56 -90
24 -18 c13 -10 69 -37 124 -58 93 -37 156 -51 278 -65 54 -6 49 -18 47 122 -1
92 -6 87 86 97 l61 6 23 -102 23 -101 36 6 c91 14 262 106 376 201 l30 25 -61
62 c-98 102 -97 91 -14 191 4 4 47 -17 96 -47 103 -64 94 -68 151 54 43 91 70
190 79 288 l7 72 -60 0 c-33 0 -81 3 -106 6 -46 7 -46 7 -52 53 -3 25 -8 56
-10 67 -5 22 10 28 97 39 34 5 108 25 108 29 0 2 -9 35 -21 72 -30 98 -114
255 -170 316 l-47 53 -75 -74 c-52 -51 -79 -71 -88 -65 -31 18 -89 68 -89 76
0 4 23 44 50 88 28 44 50 84 50 89 0 15 -159 88 -240 111 -81 22 -220 37 -232
24z m73 -636 c135 -46 205 -183 165 -321 -21 -71 -62 -118 -131 -152 -106 -53
-239 -22 -310 71 -75 98 -66 250 18 332 75 73 172 100 258 70z"/>
</g>
</svg>
