<?xml version="1.0" standalone="no"?>
<!DOCTYPE svg PUBLIC "-//W3C//DTD SVG 20010904//EN"
 "http://www.w3.org/TR/2001/REC-SVG-20010904/DTD/svg10.dtd">
<svg version="1.0" xmlns="http://www.w3.org/2000/svg"
 width="6250.000000pt" height="4167.000000pt" viewBox="0 0 6250.000000 4167.000000"
 preserveAspectRatio="xMidYMid meet">

<g transform="translate(0.000000,4167.000000) scale(0.100000,-0.100000)"
fill="#000000" stroke="none">
<path d="M36940 39084 c-238 -21 -497 -63 -709 -115 -128 -32 -403 -117 -463
-145 -32 -14 -30 -15 52 -10 272 16 354 17 530 6 470 -27 856 -106 1265 -257
1016 -375 1849 -1127 2335 -2108 l82 -166 42 35 c232 198 539 382 816 491 52
21 97 39 99 41 8 7 -116 214 -220 369 -172 256 -337 453 -556 665 -677 658
-1513 1058 -2463 1175 -129 16 -692 29 -810 19z"/>
<path d="M30270 37757 c-101 -28 -167 -94 -196 -195 -50 -173 85 -352 266
-352 118 0 234 85 266 195 39 134 -19 271 -139 329 -64 31 -138 40 -197 23z"/>
<path d="M42815 37074 c-117 -13 -272 -36 -365 -56 l-104 -21 129 -24 c891
-161 1656 -730 2070 -1538 143 -279 235 -573 290 -920 23 -148 30 -511 12
-665 -8 -69 -14 -126 -13 -126 1 -1 42 8 91 21 134 34 327 64 445 70 58 3 121
8 141 10 38 5 315 -10 380 -21 l36 -5 13 132 c16 163 8 499 -15 649 -52 337
-131 592 -275 885 -343 699 -960 1232 -1705 1475 -289 94 -519 130 -850 135
-132 2 -258 1 -280 -1z"/>
<path d="M23378 36251 c-499 -48 -911 -90 -914 -94 -3 -3 51 -85 120 -183 69
-98 124 -179 123 -181 -2 -1 -27 -6 -55 -10 l-52 -8 527 -742 c398 -560 530
-739 536 -727 5 8 177 382 382 831 l374 816 -42 -6 c-23 -3 -84 -9 -136 -13
-79 -6 -93 -5 -89 7 4 8 45 98 92 201 47 103 86 190 86 193 0 7 44 11 -952
-84z m811 -137 c-45 -98 -85 -182 -89 -187 -5 -6 -1086 -113 -1302 -129 l-38
-3 -119 168 c-66 92 -117 167 -113 167 4 1 396 38 872 84 476 45 866 82 868
81 1 -1 -34 -83 -79 -181z"/>
<path d="M36815 35148 c-269 -83 -491 -151 -492 -152 -1 -1 28 -143 65 -315
65 -308 66 -314 47 -328 -11 -7 -72 -48 -135 -89 -177 -117 -334 -249 -456
-386 l-52 -57 -158 68 c-88 37 -166 68 -175 68 -8 0 -71 23 -139 52 -77 32
-127 48 -133 42 -9 -9 -497 -925 -494 -927 95 -56 537 -349 537 -354 0 -5 -11
-55 -25 -112 -44 -184 -58 -308 -59 -536 l-1 -214 -294 -119 c-162 -65 -295
-120 -297 -122 -1 -1 20 -72 46 -157 26 -85 96 -313 155 -506 l107 -351 112
23 c61 13 118 24 127 24 11 0 21 -15 29 -45 7 -25 18 -45 24 -45 6 0 96 18
199 40 103 22 190 40 192 40 2 0 27 -34 55 -75 88 -130 203 -266 327 -386
l119 -114 -123 -290 c-68 -159 -122 -294 -119 -300 4 -11 908 -495 925 -495 6
0 17 14 26 30 9 17 18 30 22 30 3 0 53 -25 109 -55 l104 -55 27 42 c40 65 305
472 309 477 2 2 101 -10 221 -28 120 -17 264 -34 320 -37 l102 -7 70 -171 c38
-94 87 -215 108 -268 23 -59 44 -98 52 -98 8 0 58 14 113 30 54 17 102 29 107
26 5 -3 17 -28 27 -56 10 -27 20 -50 23 -50 11 1 941 287 945 291 2 2 -27 148
-64 324 -52 239 -66 322 -57 328 7 4 51 31 100 60 123 73 242 164 349 265 54
52 98 86 108 84 10 -1 35 17 59 43 23 25 46 45 52 45 6 0 92 -34 191 -77 172
-72 182 -75 195 -58 7 11 13 22 13 27 0 4 37 -9 83 -28 45 -20 96 -42 114 -49
l32 -13 97 181 c53 100 117 220 142 267 25 47 59 112 77 145 98 183 155 293
155 302 0 6 -37 34 -82 64 -228 147 -434 282 -440 288 -5 4 3 56 17 116 45
198 58 325 59 558 l1 217 93 37 c58 23 91 41 88 49 -3 8 64 39 187 89 106 43
193 79 194 79 1 1 -45 156 -103 345 -72 236 -102 347 -95 355 16 19 -62 262
-83 258 -8 -1 -54 -11 -101 -21 -47 -11 -87 -16 -89 -13 -2 4 -9 27 -16 51 -6
24 -15 53 -20 66 l-8 22 -224 -48 c-122 -27 -226 -49 -229 -49 -3 0 -50 60
-105 133 -60 81 -154 188 -241 276 -134 135 -143 146 -134 170 5 14 59 143
120 285 61 143 111 265 111 270 0 12 -25 27 -270 156 -96 51 -206 109 -245
130 -38 20 -106 56 -150 80 -44 23 -113 60 -153 82 -64 35 -75 38 -85 25 -10
-14 -27 -7 -132 49 -65 35 -123 63 -128 61 -5 -1 -87 -122 -182 -267 -110
-169 -177 -264 -186 -261 -8 1 -56 14 -106 27 -109 27 -273 50 -429 59 l-110
7 -93 231 c-52 128 -97 236 -101 240 -4 5 -47 -4 -95 -18 -47 -15 -90 -24 -93
-20 -4 4 -19 37 -33 73 -19 47 -32 68 -45 69 -11 1 -239 -66 -509 -149z m534
-5 c1 -7 -36 -24 -81 -38 -476 -145 -653 -203 -651 -211 0 -5 25 -119 53 -254
29 -135 57 -272 64 -305 l13 -60 -81 -49 c-150 -91 -310 -219 -461 -368 l-150
-148 -107 46 -108 46 55 63 c120 137 364 328 560 440 28 15 51 29 53 30 1 1
-28 142 -64 314 -37 172 -65 313 -63 315 2 1 211 65 464 143 l460 140 22 -46
c12 -25 22 -51 22 -58z m1654 -146 c14 -11 -1 -38 -132 -240 -82 -125 -150
-230 -153 -232 -2 -3 -22 0 -44 7 -21 6 -76 18 -121 27 l-83 16 136 210 c75
116 152 234 170 263 l34 53 88 -46 c49 -25 96 -51 105 -58z m-888 -353 c248
-33 241 -40 -30 -36 -214 3 -252 6 -262 20 -7 9 -13 22 -13 30 0 16 123 10
305 -14z m252 -50 c-3 -3 -12 -4 -19 -1 -8 3 -5 6 6 6 11 1 17 -2 13 -5z
m-3030 -645 c56 -23 100 -45 99 -48 -7 -12 -414 -778 -430 -809 l-17 -32 177
-116 c116 -76 179 -111 184 -104 5 8 41 -10 107 -53 l100 -65 -24 -103 c-13
-57 -34 -169 -47 -248 -13 -79 -29 -147 -35 -151 -8 -5 -12 -66 -12 -202 l0
-196 -47 -20 c-26 -11 -157 -64 -292 -118 -135 -53 -247 -99 -249 -101 -4 -2
226 -768 245 -817 4 -9 -23 -19 -97 -35 -56 -12 -103 -20 -104 -19 -5 5 -278
903 -279 916 -1 8 109 58 289 131 l290 117 1 235 c0 256 13 362 64 567 17 64
26 119 22 123 -4 4 -117 77 -252 164 -135 87 -251 163 -258 170 -12 10 26 87
213 439 132 247 232 425 239 423 6 -3 57 -24 113 -48z m2942 -115 c165 -43
405 -165 572 -291 665 -501 907 -1392 583 -2151 -309 -722 -1040 -1169 -1807
-1104 -254 22 -357 52 -538 158 -42 24 -83 42 -90 39 -29 -10 -242 169 -372
313 -325 361 -486 847 -448 1350 16 213 77 497 104 486 8 -3 28 33 55 99 81
197 217 402 376 566 365 375 868 576 1390 554 66 -3 145 -12 175 -19z m416
-104 c706 -281 1166 -952 1166 -1705 0 -146 -3 -183 -27 -327 -104 -621 -561
-1170 -1159 -1393 -283 -105 -616 -143 -900 -101 -160 24 -188 35 -75 29 189
-11 444 28 654 98 461 153 851 490 1070 925 136 269 198 533 198 839 0 316
-64 578 -213 865 -80 154 -172 282 -299 413 -149 156 -273 252 -467 364 -52
30 -37 28 52 -7z m1951 -300 c7 -24 12 -45 11 -46 -1 -1 -78 -18 -172 -38 -93
-20 -177 -39 -185 -41 -10 -3 -25 11 -43 41 -15 26 -27 47 -25 49 7 5 374 83
387 81 8 0 20 -21 27 -46z m-4806 -2796 c90 -147 245 -338 384 -472 l116 -112
-120 -280 c-65 -155 -121 -288 -122 -296 -4 -19 -14 -13 532 -302 101 -53 108
-58 93 -73 -7 -7 -130 53 -429 212 -231 122 -423 225 -428 230 -5 4 46 136
113 292 66 157 121 289 121 294 0 5 -37 42 -82 82 -92 81 -196 193 -274 291
-61 78 -134 186 -134 198 0 6 114 37 155 41 6 0 39 -47 75 -105z m4323 -370
c86 -37 155 -69 153 -71 -4 -4 -316 124 -325 133 -14 13 32 -3 172 -62z
m-1853 -1035 c47 -117 85 -216 85 -222 0 -6 -40 -23 -88 -38 l-88 -27 -10 21
c-5 12 -49 121 -98 242 l-89 220 97 6 c53 3 98 6 101 7 3 1 44 -93 90 -209z"/>
<path d="M31250 34939 c-365 -41 -692 -135 -1015 -294 -147 -72 -389 -215
-420 -247 -7 -7 -7 -9 0 -5 17 9 256 56 345 67 585 73 1208 -27 1692 -271 33
-17 62 -28 64 -26 3 2 0 64 -4 138 -10 147 -8 559 3 600 5 22 3 28 -17 33 -37
12 -554 16 -648 5z"/>
<path d="M46355 33754 c-110 -9 -107 -13 45 -64 254 -84 437 -173 650 -315
170 -113 273 -198 415 -340 145 -144 227 -246 347 -425 205 -308 341 -660 409
-1060 20 -117 23 -170 24 -405 0 -275 -6 -344 -46 -545 -87 -432 -287 -846
-574 -1190 -87 -103 -302 -312 -405 -392 -144 -111 -297 -206 -475 -293 -246
-121 -496 -202 -736 -239 -52 -8 -112 -18 -134 -22 -22 -4 -263 -10 -535 -13
l-495 -6 930 -32 c614 -22 945 -30 975 -24 25 5 90 14 145 21 461 54 951 262
1335 566 130 104 356 335 456 469 296 396 469 822 529 1305 20 163 20 487 0
649 -75 604 -347 1158 -779 1586 -399 395 -932 661 -1492 745 -135 20 -468 34
-589 24z"/>
<path d="M24343 29641 c-62 -39 -82 -125 -43 -188 53 -87 189 -82 236 8 25 50
15 123 -24 162 -41 40 -120 49 -169 18z"/>
<path d="M36430 28443 c1 -42 72 -418 83 -439 22 -41 59 -74 104 -89 l38 -13
0 -1014 0 -1013 -28 -90 c-74 -238 -222 -415 -435 -522 -106 -53 -221 -78
-417 -92 -108 -7 -175 -17 -240 -36 -383 -112 -676 -433 -751 -823 -9 -49 -14
-146 -14 -292 l0 -218 -45 -26 c-73 -43 -89 -76 -126 -266 l-33 -170 -2311 -2
-2310 -3 -80 -22 c-114 -32 -267 -112 -354 -185 -137 -116 -245 -288 -293
-468 l-23 -85 -3 -2275 c-2 -1471 1 -2311 7 -2376 18 -178 74 -320 182 -464
104 -138 249 -240 429 -301 l95 -33 340 -7 c187 -4 1121 -8 2076 -8 l1737 -1
302 456 c165 250 304 462 307 470 4 12 -201 14 -1489 14 -1459 0 -1497 0
-1574 20 -232 58 -420 211 -524 425 -60 124 -82 218 -81 355 1 382 270 703
649 776 62 12 360 14 1828 14 1278 0 1754 3 1754 11 0 6 -38 84 -84 173 -98
187 -121 255 -113 334 9 87 94 248 283 539 l73 113 -1867 2 -1867 3 -73 23
c-287 89 -490 298 -563 581 -27 105 -27 278 0 384 73 280 289 498 577 580 l79
22 2792 3 2792 2 273 153 c150 85 314 179 365 210 94 59 145 72 157 41 25 -66
-30 -222 -137 -384 l-16 -25 1197 0 1197 0 80 -23 c462 -131 708 -585 559
-1031 -38 -113 -96 -205 -193 -302 -129 -128 -267 -200 -441 -228 -43 -7 -539
-11 -1487 -11 -883 0 -1423 -4 -1423 -9 0 -6 4 -12 9 -15 17 -11 63 -141 111
-318 29 -103 70 -221 96 -280 43 -94 47 -108 47 -182 1 -98 -20 -172 -77 -283
l-43 -83 1396 -3 c1306 -2 1400 -4 1456 -20 492 -147 730 -671 510 -1122 -104
-215 -297 -370 -525 -425 -84 -20 -111 -20 -2068 -20 -1577 0 -1984 -3 -1987
-12 -5 -12 -225 -919 -225 -925 0 -2 1450 -2 3223 -1 l3222 3 77 22 c332 95
567 334 651 660 l22 88 0 2330 c0 2165 -1 2335 -17 2407 -67 299 -261 534
-534 648 -168 70 54 64 -2664 70 l-2454 5 -27 161 c-15 89 -34 175 -43 192
-20 39 -73 80 -114 88 l-32 7 0 199 c0 215 11 297 56 417 88 233 292 424 534
499 77 23 120 29 300 42 161 11 263 36 389 96 293 138 492 378 584 704 21 74
21 91 24 1112 l4 1038 38 20 c40 20 85 67 95 97 7 21 86 413 86 425 0 4 -153
8 -340 8 l-340 0 5 -22 c3 -13 19 -108 36 -213 21 -132 36 -199 51 -222 24
-40 84 -83 115 -83 l23 0 0 -989 c0 -1070 0 -1060 -55 -1206 -75 -201 -229
-366 -426 -459 -104 -50 -174 -66 -329 -77 -169 -11 -255 -25 -348 -55 -340
-111 -606 -393 -699 -740 -24 -91 -26 -119 -31 -345 l-4 -246 -39 -17 c-61
-27 -88 -77 -115 -214 -13 -64 -29 -141 -35 -169 l-10 -53 -878 0 -878 0 -27
162 c-18 108 -34 174 -49 201 -22 39 -89 87 -121 87 -16 0 -17 17 -14 238 5
273 11 301 88 459 88 179 261 335 444 402 106 38 169 49 346 61 263 17 458 95
653 263 141 121 271 334 325 532 l27 100 3 1030 3 1030 38 16 c73 31 88 65
137 305 24 119 44 218 44 220 0 2 -153 4 -340 4 -187 0 -340 -3 -340 -7z"/>
<path d="M24235 26828 c-296 -273 -657 -534 -923 -667 -143 -72 -236 -107
-387 -147 -246 -65 -318 -113 -465 -308 -140 -186 -219 -257 -378 -336 -122
-61 -222 -94 -483 -160 -322 -80 -511 -145 -694 -235 -481 -238 -710 -586
-766 -1160 -15 -149 -6 -509 16 -655 93 -637 383 -1256 780 -1669 125 -130
189 -179 307 -236 51 -25 126 -63 166 -84 145 -77 345 -102 503 -62 115 28
185 67 389 212 96 69 254 179 350 245 236 161 339 260 434 418 l36 60 -82 17
c-268 54 -493 263 -588 547 -29 84 -34 114 -38 224 -3 95 0 145 12 201 77 344
388 542 718 458 256 -66 469 -273 556 -541 12 -36 34 -123 49 -195 24 -116 27
-151 27 -330 0 -220 -9 -292 -69 -520 -47 -180 -107 -349 -252 -710 -147 -364
-157 -399 -151 -515 3 -70 10 -98 36 -154 44 -93 148 -195 258 -253 263 -139
642 -187 919 -117 100 25 255 107 327 174 125 114 148 218 108 496 -29 202
-25 254 39 465 61 204 71 258 71 373 0 113 -24 172 -95 234 -48 42 -91 59
-230 91 -118 27 -256 121 -375 256 -166 189 -326 520 -374 775 -24 124 -21
199 14 320 51 176 97 455 134 819 9 79 17 145 18 146 2 2 71 31 153 65 83 34
186 80 230 103 383 197 438 749 163 1632 -85 276 -312 837 -336 834 -4 0 -61
-50 -127 -111z"/>
<path d="M44784 26709 c-101 -29 -131 -167 -52 -240 78 -74 214 -29 234 76 20
107 -78 195 -182 164z"/>
<path d="M45353 26690 c-41 -24 -63 -67 -63 -120 0 -56 26 -96 77 -121 117
-57 236 57 188 179 -31 76 -129 107 -202 62z"/>
<path d="M16945 24601 c-11 -10 -4 -191 10 -249 26 -111 115 -259 190 -316
l33 -26 169 218 c195 249 227 292 222 292 -2 1 -143 20 -312 43 -169 24 -310
41 -312 38z"/>
<path d="M22912 23280 c-86 -23 -127 -46 -175 -100 -41 -45 -57 -92 -57 -173
0 -116 42 -163 186 -211 123 -41 170 -65 211 -108 41 -43 59 -87 68 -168 10
-95 35 -141 94 -174 118 -64 220 -6 278 157 25 70 24 71 -47 82 l-45 6 -17
-49 c-32 -91 -76 -123 -122 -89 -13 9 -20 34 -26 83 -11 97 -27 145 -69 200
-54 71 -130 118 -256 160 -60 19 -117 42 -125 50 -21 20 -18 116 5 150 37 56
211 103 338 90 l57 -6 0 29 c0 16 3 43 6 60 l7 31 -119 -1 c-84 0 -141 -6
-192 -19z"/>
<path d="M31690 22213 c-14 -2 -47 -11 -75 -20 -272 -85 -450 -342 -432 -624
14 -214 142 -409 331 -503 141 -71 -15 -66 2101 -66 l1910 1 67 93 c37 51 105
141 152 200 47 59 86 109 86 112 0 2 -776 4 -1725 4 l-1725 0 0 205 0 205
1950 0 1951 0 118 80 c66 43 206 132 313 195 106 64 195 119 197 121 6 5
-5186 3 -5219 -3z"/>
<path d="M37625 22086 c-71 -73 -165 -165 -208 -203 l-78 -70 1105 5 1106 5 0
-207 0 -206 -1365 0 c-751 0 -1365 -3 -1365 -7 0 -5 35 -55 78 -113 82 -110
154 -188 236 -255 l48 -39 1542 2 c1302 3 1551 6 1605 18 205 46 397 238 446
445 73 310 -95 617 -397 727 l-73 27 -1275 2 -1275 2 -130 -133z"/>
<path d="M31720 19450 c-147 -20 -255 -73 -360 -179 -323 -325 -190 -863 250
-1014 l65 -22 1563 -3 1562 -2 195 295 c107 163 195 302 195 309 0 7 -23 18
-52 25 -82 18 -82 17 -53 101 14 40 27 75 29 77 2 2 32 -10 66 -27 50 -25 65
-29 71 -18 32 50 62 342 45 433 l-7 35 -1757 -1 c-966 -1 -1782 -5 -1812 -9z
m1330 -322 c0 -24 -5 -74 -10 -112 -6 -38 -9 -70 -7 -72 2 -2 50 17 106 42 57
25 106 42 109 39 4 -4 16 -40 28 -81 l22 -74 -37 -9 c-20 -6 -67 -15 -106 -22
-38 -6 -72 -13 -74 -15 -2 -2 29 -40 68 -84 39 -44 71 -85 71 -89 0 -10 -129
-96 -134 -90 -1 2 -28 46 -58 97 l-55 93 -62 -101 -62 -100 -60 47 c-33 26
-63 51 -66 56 -3 5 30 44 73 88 43 43 76 80 73 82 -2 2 -47 14 -99 27 -52 12
-99 26 -104 30 -8 8 29 136 44 153 4 4 51 -14 104 -41 l98 -49 -6 41 c-3 23
-8 74 -12 114 l-7 72 82 0 81 0 0 -42z m1199 -10 c0 -29 -4 -80 -8 -113 -5
-33 -7 -61 -6 -62 1 -2 48 18 105 43 56 25 106 42 110 37 12 -13 49 -152 42
-157 -4 -2 -52 -12 -107 -21 -55 -10 -102 -19 -104 -21 -2 -2 28 -39 68 -83
39 -43 71 -83 71 -89 0 -15 -124 -92 -133 -83 -4 4 -32 47 -61 95 l-53 87 -28
-48 c-16 -26 -43 -72 -62 -101 l-33 -52 -65 51 c-36 28 -65 54 -65 58 0 3 34
40 75 81 41 41 75 77 75 80 0 3 -42 16 -92 28 -129 31 -125 27 -98 108 12 38
26 72 29 77 4 4 49 -13 100 -38 52 -25 95 -44 97 -42 2 2 0 46 -6 98 -5 52
-10 100 -10 107 0 8 23 12 80 12 l80 0 -1 -52z"/>
<path d="M37305 19369 c-111 -111 -223 -197 -366 -279 -103 -59 -124 -73 -98
-68 16 4 61 -144 48 -153 -6 -3 -55 -14 -110 -24 -54 -9 -99 -19 -99 -22 0 -3
32 -40 70 -82 39 -43 70 -82 70 -88 0 -9 -15 -21 -100 -76 l-26 -17 -58 95
c-32 52 -59 95 -61 95 -1 0 -28 -43 -59 -95 -47 -78 -61 -95 -76 -90 -16 5
-21 -2 -33 -43 -20 -66 -36 -144 -45 -224 l-8 -68 1940 0 c1666 0 1951 2 2011
15 90 19 215 81 282 140 65 58 144 174 173 256 31 89 39 259 15 349 -56 217
-217 380 -440 447 -56 16 -155 18 -1500 21 l-1440 3 -90 -92z m552 -231 c-4
-18 -9 -70 -13 -116 l-7 -83 34 14 c121 53 181 78 184 75 9 -10 45 -151 40
-156 -3 -4 -53 -16 -111 -27 l-104 -21 75 -84 c41 -47 75 -87 75 -90 0 -4
-113 -81 -130 -88 -4 -1 -33 41 -64 93 l-58 97 -61 -101 -60 -100 -41 30 c-23
16 -54 41 -70 54 l-30 24 82 84 82 83 -109 28 -109 28 25 74 c15 46 30 74 39
74 8 0 55 -21 106 -46 l91 -46 -6 29 c-3 16 -9 68 -13 116 l-7 87 83 0 82 0
-5 -32z m1203 4 c0 -15 -5 -65 -10 -111 -6 -46 -9 -85 -7 -87 2 -2 49 17 106
42 56 26 104 44 107 41 9 -9 44 -142 40 -153 -2 -5 -49 -19 -105 -29 -56 -10
-101 -21 -101 -24 0 -3 32 -42 70 -86 39 -44 70 -83 70 -87 0 -3 -30 -25 -66
-48 -52 -33 -68 -39 -75 -28 -5 7 -30 48 -56 91 -26 42 -50 77 -54 77 -3 0
-32 -43 -64 -96 -39 -66 -60 -92 -68 -86 -16 11 -110 84 -120 93 -5 3 28 44
72 91 l80 85 -76 17 c-41 10 -90 22 -108 27 l-33 9 26 80 c14 44 29 80 32 80
4 0 50 -22 104 -49 88 -44 97 -47 92 -27 -3 11 -8 63 -12 114 l-7 92 82 0 81
0 0 -28z"/>
<path d="M21135 19372 c-549 -247 -1119 -591 -1636 -990 l-162 -125 -106 -24
c-485 -109 -940 -333 -1355 -668 -436 -350 -1119 -1180 -1657 -2012 -1050
-1624 -1867 -3610 -2443 -5938 -57 -231 -114 -460 -126 -510 -13 -49 -25 -109
-27 -132 -18 -163 242 -306 677 -372 74 -11 170 -23 214 -27 l78 -7 -5 29
c-14 69 -18 279 -8 394 14 152 31 285 41 299 8 14 280 77 533 125 418 80 925
138 1287 148 l104 3 -2 -45 c-14 -215 -245 -2807 -347 -3890 -25 -261 -47
-502 -50 -535 -29 -337 -262 -2639 -270 -2662 -3 -10 -157 -13 -725 -13 l-720
0 0 -115 0 -115 16900 0 16900 0 0 115 0 115 -3201 0 -3201 0 78 40 c175 88
303 231 354 399 13 42 198 1416 536 3990 561 4269 533 4027 484 4153 -46 122
-153 229 -279 280 l-56 23 -1812 3 -1813 2 0 -150 0 -150 1348 -1 c741 0 1365
-3 1387 -5 106 -13 194 -53 270 -125 90 -85 135 -193 135 -324 0 -38 -42 -369
-94 -735 -52 -366 -122 -861 -156 -1100 -33 -239 -87 -624 -120 -855 -33 -231
-87 -613 -120 -850 -34 -236 -81 -569 -105 -740 -46 -325 -127 -897 -270
-1920 -47 -335 -94 -639 -105 -675 -41 -138 -165 -293 -287 -358 -60 -32 -63
-32 -197 -32 l-136 0 0 100 0 100 -126 0 -126 0 6 68 c26 285 306 4385 301
4412 -10 53 -55 128 -96 161 -77 60 -57 59 -810 59 l-689 0 0 -140 0 -140 44
-60 c25 -33 49 -75 55 -93 11 -34 751 -4223 751 -4251 0 -14 -27 -16 -260 -16
l-260 0 0 -95 0 -95 -105 0 -105 0 0 95 0 95 -605 0 -605 0 0 -95 0 -95 -100
0 -100 0 0 95 0 95 -610 0 -610 0 0 -95 0 -95 -100 0 -100 0 0 95 0 95 -610 0
-610 0 0 -95 0 -95 -125 0 -125 0 0 95 0 95 -1997 -2 -1998 -3 -3 -97 -3 -98
-99 0 -99 0 -3 98 -3 97 -126 3 -127 3 -10 27 c-22 55 -32 109 -32 170 0 47
92 735 135 1012 2 14 29 205 60 425 30 220 80 571 110 780 30 209 61 434 70
500 l16 121 -126 714 c-69 393 -127 715 -128 717 -1 1 -144 -1004 -317 -2233
l-315 -2234 -207 0 -208 0 0 -100 0 -100 -105 0 -105 0 0 100 0 100 -479 0
-479 0 -6 63 c-34 358 -87 866 -141 1357 -277 2520 -361 3636 -411 5437 -4
133 -10 245 -13 250 -3 4 -100 46 -216 92 -1261 504 -2304 1120 -3150 1859
-147 129 -545 528 -545 546 0 13 64 76 76 76 3 0 99 -94 212 -208 329 -332
603 -565 997 -849 686 -495 1609 -985 2528 -1344 l98 -38 -7 121 c-6 102 -5
120 7 116 8 -3 136 -72 284 -152 149 -81 437 -230 640 -331 344 -171 379 -186
505 -218 l135 -35 138 136 c594 586 1199 1447 1508 2144 34 78 44 87 78 68 15
-7 21 -4 31 18 223 471 377 928 454 1352 49 269 61 404 60 715 0 263 -3 306
-27 465 -30 193 -63 349 -102 474 l-25 83 -192 93 c-2830 1366 -4819 2275
-5474 2503 -212 74 -453 133 -664 162 l-114 16 -156 88 c-437 249 -673 366
-1145 567 -228 97 -240 101 -245 80 -7 -26 -145 -122 -263 -181 -116 -59 -282
-111 -430 -136 -106 -18 -150 -21 -332 -16 -228 5 -307 16 -523 73 -254 66
-554 191 -785 327 l-89 52 4 58 c2 31 2 57 -1 57 -3 0 -64 -26 -136 -58z
m-3521 -3302 l25 -9 -20 -58 c-34 -98 -135 -429 -188 -613 -372 -1303 -621
-2720 -711 -4045 -14 -213 -30 -554 -30 -657 l0 -88 -52 0 -51 0 6 238 c19
695 107 1550 243 2367 156 935 410 1989 660 2748 51 152 44 145 118 117z
m8042 -2825 c366 -311 806 -510 1264 -571 141 -18 449 -18 597 1 245 32 535
114 737 209 54 25 102 46 105 46 3 0 19 -22 34 -50 l28 -49 -58 -29 c-156 -79
-429 -172 -618 -211 -358 -73 -730 -72 -1073 5 -337 75 -713 257 -1013 490
-96 75 -149 121 -149 131 0 13 60 83 71 83 5 0 39 -25 75 -55z m-2742 -8616
c15 -22 25 -47 22 -54 -9 -24 -351 -221 -571 -330 -1146 -567 -2295 -623
-3345 -164 -240 105 -565 297 -690 408 l-45 40 41 41 42 42 63 -49 c450 -350
1096 -594 1731 -654 166 -15 632 -6 783 15 606 86 1189 299 1755 640 96 58
178 105 181 106 4 0 19 -18 33 -41z"/>
<path d="M31125 10368 c-3 -18 -46 -321 -95 -673 -49 -352 -92 -655 -95 -672
l-6 -33 230 0 230 0 6 33 c3 17 23 163 45 322 23 160 61 431 85 603 25 172 45
321 45 330 0 14 -37 26 -202 67 -112 28 -211 51 -220 53 -12 2 -18 -6 -23 -30z"/>
<path d="M33770 9840 l0 -100 1335 0 1335 0 0 100 0 100 -1335 0 -1335 0 0
-100z"/>
<path d="M36700 9840 l0 -100 935 0 935 0 0 100 0 100 -935 0 -935 0 0 -100z"/>
<path d="M35588 9363 l-98 -4 0 -99 0 -100 670 0 670 0 0 105 0 105 -572 -2
c-315 -1 -617 -4 -670 -5z"/>
<path d="M37230 9265 l0 -105 203 0 c112 0 414 3 670 7 l467 6 0 99 0 98 -670
0 -670 0 0 -105z"/>
<path d="M33770 9260 l0 -100 670 0 670 0 0 100 0 100 -670 0 -670 0 0 -100z"/>
<path d="M32647 9190 c-72 -13 -131 -46 -185 -105 -89 -97 -92 -95 139 -95
l199 0 0 105 0 105 -52 -1 c-29 -1 -74 -5 -101 -9z"/>
<path d="M34664 8778 c7 -18 29 -64 48 -103 l34 -70 89 -3 c50 -2 249 0 443 3
l352 7 0 99 0 99 -490 0 -490 0 14 -32z"/>
<path d="M35890 8710 l0 -100 1340 0 1340 0 0 100 0 100 -1340 0 -1340 0 0
-100z"/>
<path d="M35073 8250 l-161 -5 26 -53 c14 -29 47 -73 73 -97 l48 -45 696 0
695 0 0 105 0 105 -607 -2 c-335 -1 -681 -5 -770 -8z"/>
<path d="M36710 8153 l0 -106 527 6 c289 4 708 7 930 7 l403 0 0 100 0 100
-930 0 -930 0 0 -107z"/>
</g>
</svg>
